{"title":"Goliyon Ki Rasleela Ram-Leela 2013 Hindi 720p DvDRip x264 AC3 5.","uid":9597335,"size":3222222153,"categoryP":"video","categoryS":"hd___movies","magnet":"?xt=urn:btih:cfa7c6d2d8b7ceceb57e429296a64ecf90f587c0&amp;dn=Goliyon+Ki+Rasleela+Ram-Leela+2013+Hindi+720p+DvDRip+x264+AC3+5.&amp;tr=udp%3A%2F%2Ftracker.openbittorrent.com%3A80&amp;tr=udp%3A%2F%2Fopen.demonii.com%3A1337&amp;tr=udp%3A%2F%2Ftracker.coppersurfer.tk%3A6969&amp;tr=udp%3A%2F%2Fexodus.desync.com%3A6969","seeders":1,"leechers":0,"uploader":"honey8ee","files":3,"time":1392048238,"description":"www.imdb.com/title/tt2215477/\n\nFormat                                   : Matroska\nFile size                                : 3.00 GiB\nDuration                                 : 2h 38mn\nOverall bit rate                         : 2 712 Kbps\n\nVideo\nID                                       : 1\nFormat                                   : AVC\nFormat/Info                              : Advanced Video Codec\nFormat profile                           : &lt;a class=&quot;__cf_email__&quot; href=&quot;/cdn-cgi/l/email-protection&quot; data-cfemail=&quot;4f072628270f037b617e&quot;&gt;[email&amp;#160;protected]&lt;/a&gt;&lt;script cf-hash='f9e31' type=&quot;text/javascript&quot;&gt;\n/* &lt;![CDATA[ */!function(){try{var t=&quot;currentScript&quot;in document?document.currentScript:function(){for(var t=document.getElementsByTagName(&quot;script&quot;),e=t.length;e--;)if(t[e].getAttribute(&quot;cf-hash&quot;))return t[e]}();if(t&amp;&amp;t.previousSibling){var e,r,n,i,c=t.previousSibling,a=c.getAttribute(&quot;data-cfemail&quot;);if(a){for(e=&quot;&quot;,r=parseInt(a.substr(0,2),16),n=2;a.length-n;n+=2)i=parseInt(a.substr(n,2),16)^r,e+=String.fromCharCode(i);e=document.createTextNode(e),c.parentNode.replaceChild(e,c)}}}catch(u){}}();/* ]]&gt; */&lt;/script&gt;\nFormat settings, CABAC                   : Yes\nFormat settings, ReFrames                : 12 frames\nCodec ID                                 : V_MPEG4/ISO/AVC\nDuration                                 : 2h 38mn\nBit rate                                 : 2 262 Kbps\nWidth                                    : 1 280 pixels\nHeight                                   : 544 pixels\nDisplay aspect ratio                     : 2.35:1\nFrame rate mode                          : Constant\nFrame rate                               : 23.976 fps\nStream size                              : 2.45 GiB (81%)\nWriting library                          : x264 core 138 r2358 9e941d1\n\nAudio\nID                                       : 2\nFormat                                   : AC-3\nFormat/Info                              : Audio Coding 3\nMode extension                           : CM (complete main)\nFormat settings, Endianness              : Big\nCodec ID                                 : A_AC3\nDuration                                 : 2h 38mn\nBit rate mode                            : Constant\nBit rate                                 : 448 Kbps\nChannel count                            : 6 channels\nChannel positions                        : Front: L C R, Side: L R, LFE\nSampling rate                            : 48.0 KHz\nBit depth                                : 16 bits\nStream size                              : 508 MiB (17%)\nTitle                                    : Br@ve [Rana.Aqib]\nLanguage                                 : Hindi\n\n &lt;a href=&quot;\nhttp://i.imgur.com/DFP7NEJ.png&quot; rel=&quot;nofollow&quot; target=&quot;_NEW&quot;&gt;\nhttp://i.imgur.com/DFP7NEJ.png&lt;/a&gt; &lt;a href=&quot;\nhttp://i.imgur.com/4qgLseP.png&quot; rel=&quot;nofollow&quot; target=&quot;_NEW&quot;&gt;\nhttp://i.imgur.com/4qgLseP.png&lt;/a&gt; &lt;a href=&quot;\nhttp://i.imgur.com/pjIaW2a.png&quot; rel=&quot;nofollow&quot; target=&quot;_NEW&quot;&gt;\nhttp://i.imgur.com/pjIaW2a.png&lt;/a&gt; &lt;a href=&quot;\nhttp://i.imgur.com/VBnCtM2.png&quot; rel=&quot;nofollow&quot; target=&quot;_NEW&quot;&gt;\nhttp://i.imgur.com/VBnCtM2.png&lt;/a&gt; &lt;a href=&quot;\nhttp://i.imgur.com/E95x3UM.png&quot; rel=&quot;nofollow&quot; target=&quot;_NEW&quot;&gt;\nhttp://i.imgur.com/E95x3UM.png&lt;/a&gt; &lt;a href=&quot;\nhttp://i.imgur.com/1XWtfxg.png&quot; rel=&quot;nofollow&quot; target=&quot;_NEW&quot;&gt;\nhttp://i.imgur.com/1XWtfxg.png&lt;/a&gt; &lt;a href=&quot;\nhttp://i.imgur.com/P6m2uGx.png&quot; rel=&quot;nofollow&quot; target=&quot;_NEW&quot;&gt;\nhttp://i.imgur.com/P6m2uGx.png&lt;/a&gt; &lt;a href=&quot;\nhttp://i.imgur.com/79uUXY4.png&quot; rel=&quot;nofollow&quot; target=&quot;_NEW&quot;&gt;\nhttp://i.imgur.com/79uUXY4.png&lt;/a&gt; &lt;a href=&quot;\nhttp://i.imgur.com/4ehJPGy.png&quot; rel=&quot;nofollow&quot; target=&quot;_NEW&quot;&gt;\nhttp://i.imgur.com/4ehJPGy.png&lt;/a&gt; &lt;a href=&quot;\nhttp://i.imgur.com/THRo1IL.png&quot; rel=&quot;nofollow&quot; target=&quot;_NEW&quot;&gt;\nhttp://i.imgur.com/THRo1IL.png&lt;/a&gt; &lt;a href=&quot;\nhttp://i.imgur.com/9R1hfYx.png&quot; rel=&quot;nofollow&quot; target=&quot;_NEW&quot;&gt;\nhttp://i.imgur.com/9R1hfYx.png&lt;/a&gt;\n\n\nAudio Perfectly Sync\n\n                                   &lt;a href=&quot; http://www.hon3yhd.com/&quot; rel=&quot;nofollow&quot; target=&quot;_NEW&quot;&gt; http://www.hon3yhd.com/&lt;/a&gt;","torrent":{"xt":"urn:btih:cfa7c6d2d8b7ceceb57e429296a64ecf90f587c0","amp;dn":"Goliyon+Ki+Rasleela+Ram-Leela+2013+Hindi+720p+DvDRip+x264+AC3+5.","amp;tr":["udp%3A%2F%2Ftracker.openbittorrent.com%3A80","udp%3A%2F%2Fopen.demonii.com%3A1337","udp%3A%2F%2Ftracker.coppersurfer.tk%3A6969","udp%3A%2F%2Fexodus.desync.com%3A6969"],"infoHash":"cfa7c6d2d8b7ceceb57e429296a64ecf90f587c0","infoHashBuffer":{"type":"Buffer","data":[207,167,198,210,216,183,206,206,181,126,66,146,150,166,78,207,144,245,135,192]},"announce":[],"urlList":[]}}